<?xml version="1.0"?>
<svg xmlns="http://www.w3.org/2000/svg" height="512px" viewBox="-19 -82 604.00202 604" width="512px"><path d="m177.105469-3.191406 59.253906-.179688.09375 30.484375c-16.894531 5.570313-27.230469 22.59375-24.382813 40.144531 2.847657 17.558594 18.03125 30.441407 35.816407 30.386719 17.789062-.050781 32.894531-13.023437 35.636719-30.601562 2.742187-17.570313-7.695313-34.527344-24.617188-39.992188l-.09375-30.484375 189.609375-.566406.09375 30.484375c-16.894531 5.570313-27.230469 22.589844-24.382813 40.144531 2.851563 17.558594 18.035157 30.4375 35.820313 30.382813 17.785156-.054688 32.890625-13.023438 35.632813-30.59375 2.742187-17.574219-7.695313-34.535157-24.617188-40.003907l-.09375-30.484374 55.511719-.164063c21.347656-.039063 38.695312 17.210937 38.785156 38.558594l.269531 91.0625-426.621094 1.265625-.265624-91.0625c-.046876-21.34375 17.203124-38.695313 38.550781-38.78125zm0 0" fill="#ef5b5b"/><path d="m261.503906 61.464844c0 7.578125-6.144531 13.722656-13.722656 13.722656-7.582031 0-13.722656-6.144531-13.722656-13.722656 0-7.582032 6.140625-13.722656 13.722656-13.722656 7.578125 0 13.722656 6.140624 13.722656 13.722656zm0 0" fill="#ef5b5b"/><path d="m473.5625 60.832031c0 7.578125-6.140625 13.722657-13.722656 13.722657-7.578125 0-13.722656-6.144532-13.722656-13.722657s6.144531-13.722656 13.722656-13.722656c7.582031 0 13.722656 6.144531 13.722656 13.722656zm0 0" fill="#ef5b5b"/><path d="m565.511719 147.839844-426.621094 1.265625.300781 101.65625h120.273438c14.46875 0 26.199218 11.730469 26.199218 26.199219 0 14.464843-11.730468 26.195312-26.199218 26.195312h-120.117188l.28125 94.191406c.089844 21.347656 17.441406 38.597656 38.785156 38.550782l349.28125-1.035157c21.347657-.089843 38.59375-17.441406 38.554688-38.789062zm0 0" fill="#ef5b5b"/><path d="m259.464844 265.734375h-221.136719l39.464844-39.464844c4.386719-4.386719 4.386719-11.496093 0-15.878906-4.382813-4.382813-11.488281-4.382813-15.875 0l-58.628907 58.632813c-4.386718 4.378906-4.386718 11.488281 0 15.875l58.628907 58.628906c4.386719 4.382812 11.492187 4.382812 15.875 0 4.386719-4.386719 4.386719-11.496094 0-15.875l-39.464844-39.464844h221.136719c6.199218 0 11.226562-5.03125 11.226562-11.226562 0-6.203126-5.027344-11.226563-11.226562-11.226563zm0 0" fill="#ef5b5b"/></svg>
