<?xml version="1.0"?>
<svg xmlns="http://www.w3.org/2000/svg" height="512px" viewBox="-20 -29 642.66955 642" width="512px"><path d="m434.480469 42.152344c-6.207031 0-11.234375-5.035156-11.234375-11.238282v-19.972656c0-6.207031 5.027344-11.238281 11.234375-11.238281 6.203125 0 11.238281 5.03125 11.238281 11.238281v19.972656c0 6.203126-5.035156 11.238282-11.238281 11.238282zm0 0" fill="#ef5b5b"/><path d="m95.191406 239.691406h.039063c19.148437.082032 36.875-10.082031 46.46875-26.652344 9.589843-16.566406 9.585937-37.007812-.019531-53.570312-9.605469-16.5625-27.339844-26.714844-46.488282-26.617188h-.035156c-19.144531-.085937-36.871094 10.082032-46.46875 26.648438-9.59375 16.570312-9.589844 37.003906.019531 53.566406 9.601563 16.5625 27.339844 26.722656 46.484375 26.625zm0 0" fill="#ef5b5b"/><path d="m396.992188 348.175781c-.097657-37.257812-30.320313-67.417969-67.578126-67.433593h-.050781l-55.871093.046874c-12.738282.03125-25.214844 3.660157-35.984376 10.46875-7.710937-12.636718-21.441406-20.347656-36.242187-20.351562h-.035156c-8.921875-.015625-17.621094 2.800781-24.84375 8.042969-12.800781-16.191407-32.300781-25.636719-52.933594-25.65625h-.046875l-55.875.039062c-37.253906.085938-67.4375 30.265625-67.53125 67.523438l.0273438 71.464843c0 6.203126 5.0351562 11.238282 11.2382812 11.238282h.007813l19.410156-.015625 9.367187 169.035156c.328125 5.953125 5.253907 10.613281 11.21875 10.609375h89.210938c5.914062 0 10.816406-4.582031 11.210937-10.484375l5.199219-78.03125h1.589844l8.707031 78.519531c.632812 5.691406 5.445312 9.996094 11.167969 9.996094h46.46875c5.757812 0 10.582031-4.347656 11.179687-10.074219l5.769532-55.625 4.242187 55.328125c.449219 5.851563 5.328125 10.371094 11.199219 10.371094h89.214844c5.964843 0 10.886718-4.65625 11.214843-10.609375l8.714844-155.414063 19.4375-.015624c6.203125-.003907 11.230469-5.03125 11.230469-11.234376zm-220.542969-47.148437c6.5625-6.59375 15.484375-10.292969 24.785156-10.273438h.03125c12.5625-.082031 24.203125 6.574219 30.511719 17.441406 6.308594 10.867188 6.3125 24.277344.011718 35.148438-6.300781 10.871094-17.9375 17.53125-30.5 17.464844h-.03125c-14.171874.019531-26.957031-8.507813-32.390624-21.597656-5.433594-13.09375-2.4375-28.164063 7.582031-38.183594zm57.558593 171.085937c-5.753906 0-10.578124 4.347657-11.171874 10.074219l-8.140626 78.527344h-26.277343l-8.710938-78.527344c-.632812-5.691406-5.441406-9.996094-11.167969-9.996094h-.007812l-18.433594.015625-.027344-31.035156c.105469-24.460937 19.929688-44.261719 44.394532-44.328125l13.53125-.039062h.027344c24.441406.0625 44.261718 19.824218 44.394531 44.265624l.019531 31.027344zm0 0" fill="#ef5b5b"/><path d="m301.144531 267.148438h.039063c22.125.03125 41.976562-13.589844 49.90625-34.242188 7.9375-20.652344 2.300781-44.0625-14.160156-58.84375v-13.003906c-.3125-18.113282-15.089844-32.628906-33.203126-32.628906-18.117187 0-32.890624 14.515624-33.207031 32.628906v8.878906c-2.578125 1.796875-4.992187 3.820312-7.214843 6.039062-15.277344 15.289063-19.832032 38.269532-11.546876 58.230469 8.28125 19.957031 27.773438 32.960938 49.386719 32.941407zm0 0" fill="#ef5b5b"/><path d="m586.269531 369.253906h-4.066406v-44.902344c14.210937-5.417968 22.53125-20.214843 19.773437-35.175781-2.753906-14.960937-15.800781-25.824219-31.011718-25.824219-15.214844 0-28.261719 10.863282-31.015625 25.824219-2.753907 14.960938 5.5625 29.757813 19.78125 35.175781v44.902344h-170.921875c-4.824219 0-8.738282 3.910156-8.738282 8.738282 0 4.828124 3.914063 8.742187 8.738282 8.742187h197.460937c4.828125 0 8.738281-3.914063 8.738281-8.742187 0-4.828126-3.910156-8.738282-8.738281-8.738282zm0 0" fill="#ef5b5b"/><path d="m385.121094 49.644531h97.460937c1.378907 0 2.496094 1.113281 2.496094 2.496094v15.449219c0 1.378906-1.117187 2.496094-2.496094 2.496094h-97.460937c-1.375 0-2.496094-1.117188-2.496094-2.496094v-15.449219c0-1.382813 1.121094-2.496094 2.496094-2.496094zm0 0" fill="#ef5b5b"/><path d="m510.078125 97.554688h-148.699219c-6.898437 0-12.488281 5.585937-12.488281 12.484374v25.203126c2.011719 4.570312 3.042969 9.507812 3.039063 14.5v14.175781c11.890624 10.664062 18.863281 25.753906 19.289062 41.722656.425781 15.964844-5.734375 31.40625-17.039062 42.691406-1.667969 1.65625-3.433594 3.21875-5.289063 4.667969v21.195312c9.28125.632813 18.359375 3.027344 26.742187 7.054688v-15.058594c0-6.207031 5.03125-11.238281 11.234376-11.238281h90.230468c6.203125 0 11.234375 5.03125 11.234375 11.238281v93.074219h21.746094c6.894531 0 12.484375-5.589844 12.484375-12.484375v-236.742188c0-6.898437-5.589844-12.484374-12.484375-12.484374zm-32.980469 138.035156h-90.230468c-6.203126 0-11.234376-5.035156-11.234376-11.238282 0-6.207031 5.03125-11.234374 11.234376-11.234374h90.230468c6.203125 0 11.234375 5.027343 11.234375 11.234374 0 6.203126-5.03125 11.238282-11.234375 11.238282zm0-40.601563h-90.230468c-6.203126 0-11.234376-5.027343-11.234376-11.234375 0-6.207031 5.03125-11.238281 11.234376-11.238281h90.230468c6.203125 0 11.234375 5.03125 11.234375 11.238281 0 6.207032-5.03125 11.234375-11.234375 11.234375zm0-48.714843h-90.230468c-6.203126 0-11.234376-5.03125-11.234376-11.238282 0-6.207031 5.03125-11.234375 11.234376-11.234375h90.230468c6.203125 0 11.234375 5.027344 11.234375 11.234375 0 6.207032-5.03125 11.238282-11.234375 11.238282zm0 0" fill="#ef5b5b"/><path d="m417.421875 359.265625h48.441406v-81.839844h-67.757812v26.78125c12.421875 13.511719 19.3125 31.195313 19.3125 49.546875zm0 0" fill="#ef5b5b"/></svg>
